<?xml version="1.0" encoding="UTF-8"?>
<svg id="Calque_2" data-name="Calque 2" xmlns="http://www.w3.org/2000/svg" viewBox="0 0 269.2 271.28">
  <defs>
    <style>
      .cls-1 {
        fill:rgb(255, 255, 255);
      }

      .cls-2 {
        fill:rgb(255, 255, 255);
      }

      .cls-3 {
        fill:rgb(255, 255, 255);
      }
    </style>
  </defs>
  <g id="Calque_1-2" data-name="Calque 1">
    <g>
      <path class="cls-1" d="M118.93,257.84c-5.48,3.45-11.73,6.31-18.73,8.57-7.01,2.27-14.31,3.75-21.93,4.45-7.62.7-15.25.54-22.9-.48-7.66-1.02-14.79-3.01-21.41-5.96-6.62-2.95-12.44-6.9-17.46-11.86-5.02-4.95-8.74-11.05-11.16-18.31-1.37-3.96-2.08-8.14-2.12-12.55-.05-4.41.47-8.65,1.56-12.7,2.17-7.79,5.66-14.92,10.49-21.41,4.83-6.49,10.41-12.1,16.74-16.84-7.05-5.25-11.89-10.89-14.5-16.93-2.62-6.03-3.52-12.06-2.71-18.09.81-6.02,3.13-11.84,6.96-17.46,3.82-5.62,8.61-10.56,14.36-14.82,5.75-4.26,12.25-7.64,19.51-10.15,7.25-2.5,14.72-3.69,22.4-3.58,7.67.12,15.35,1.75,23.03,4.9,7.68,3.14,14.86,8.23,21.53,15.27,4.45,4.86,7,10.32,7.66,16.38.37,4.59,0,9.11-1.09,13.57-1.1,4.47-2.72,8.67-4.87,12.62-2.15,3.95-4.82,7.68-8.02,11.19-3.2,3.51-6.63,6.53-10.29,9.04,3.2,2.53,6.24,5.15,9.11,7.84,2.87,2.69,5.82,5.46,8.85,8.32,2.03-2.72,3.46-5.67,4.28-8.83.82-3.17,2.08-6.19,3.79-9.09,1.2-2.09,3.75-2.68,7.64-1.76,3.9.92,8.02,2.5,12.37,4.74,4.35,2.24,8.29,4.75,11.81,7.54,3.52,2.79,5.5,5.01,5.95,6.65.6,1.98.2,4.66-1.19,8.06-1.4,3.39-3.12,6.86-5.18,10.4-2.05,3.54-4.23,6.87-6.51,10-2.29,3.13-4.03,5.49-5.21,7.09.63.67,1.95,1.85,3.95,3.54,2,1.69,3.99,3.41,5.99,5.18,1.99,1.77,3.71,3.49,5.13,5.16,1.42,1.67,2.04,2.83,1.87,3.48-.17.32-1.06,1.24-2.65,2.75-1.6,1.51-3.64,3.38-6.15,5.6-2.51,2.22-5.19,4.56-8.03,7.02-2.85,2.46-5.52,4.76-8.02,6.9-2.51,2.14-4.68,3.96-6.52,5.47-1.84,1.5-2.92,2.25-3.25,2.24-1.32.29-2.74-.07-4.26-1.09-1.53-1.02-2.97-2.24-4.32-3.67-1.35-1.42-2.62-2.93-3.8-4.51-1.18-1.58-2.09-2.87-2.72-3.87ZM71.16,191.88c-5.81,3.28-9.94,6.81-12.41,10.58-2.47,3.78-3.62,7.3-3.46,10.57.16,3.27,1.39,6.13,3.7,8.55,2.3,2.43,5.29,4.06,8.94,4.89,3.66.83,7.83.62,12.52-.65,4.69-1.26,9.46-3.96,14.3-8.08-3.64-4.67-7.52-9.06-11.66-13.17-4.14-4.11-8.11-8.34-11.92-12.69ZM79.88,149.46c5.99-3.92,9.39-7.55,10.21-10.88.82-3.33.16-6.12-1.98-8.39-2.15-2.26-5.13-3.97-8.93-5.14-3.81-1.16-7.28-1.54-10.39-1.13-3.12.41-5.4,1.66-6.84,3.74-1.45,2.09-.75,5.13,2.09,9.12,1.89,2.67,3.99,5.13,6.3,7.4,2.31,2.27,4.66,4.58,7.05,6.93l2.49-1.65ZM144.83,140.15c-.84.8-1.78.93-2.83.42-1.05-.52-1.64-1.35-1.77-2.5-.14-.82-.08-1.6.18-2.32.26-.73.41-1.5.43-2.32.44-4.23.01-8.37-1.27-12.41-1.28-4.04-2.94-7.8-4.97-11.28-1.72-2.99-3.81-5.82-6.27-8.5-2.47-2.68-5.14-4.95-8.03-6.83-.65-.34-1.49-.85-2.53-1.54-1.05-.68-1.72-1.43-2.02-2.26-.45-1.64-.18-2.58.81-2.8.99-.22,2.21-.06,3.67.46,1.46.53,2.87,1.22,4.23,2.07,1.37.86,2.21,1.37,2.53,1.54,6.73,4.92,12.04,11.14,15.93,18.68,3.88,7.54,5.23,15.54,4.02,24-.19.98-.38,1.99-.57,3.05-.19,1.06-.71,1.9-1.54,2.53ZM138.95,158.62c-.67.8-1.5,1.27-2.49,1.4-.98.14-1.8-.09-2.43-.68-.64-.59-.82-1.57-.53-2.96.28-1.38,1.35-3.19,3.21-5.43.67-.8,1.46-1.19,2.36-1.16.9.02,1.62.37,2.18,1.04.55.67.69,1.7.41,3.07-.28,1.38-1.18,2.95-2.7,4.71Z"/>
      <g>
        <path class="cls-2" d="M52.47,54.62c.7-.9,1.36-2.42,1.97-4.56.61-2.14,1.13-4.62,1.58-7.44.45-2.82.83-5.82,1.15-9.02.32-3.2.58-6.27.77-9.22.19-2.94.32-5.63.38-8.06.06-2.43.1-4.32.1-5.66v-1.15c0-.38.06-.77.19-1.15.13-.32.62-.58,1.49-.77.86-.19,1.92-.32,3.17-.38,1.25-.06,2.57-.06,3.98,0,1.41.06,2.75.16,4.03.29,1.28.13,2.4.29,3.36.48.96.19,1.57.38,1.82.58.38.32.61,1.2.67,2.64.06,1.44.05,3.01-.05,4.7-.1,1.7-.24,3.33-.43,4.9-.19,1.57-.32,2.64-.38,3.22-.19,1.54-.48,3.79-.87,6.77-.38,2.98-.88,6.3-1.49,9.98-.61,3.68-1.31,7.47-2.11,11.38-.8,3.9-1.71,7.55-2.74,10.94-1.02,3.39-2.16,6.32-3.41,8.78-1.25,2.46-2.58,4.05-3.98,4.75-1.35.7-2.8,1.1-4.37,1.2-1.57.1-3.09.14-4.56.14-1.6,0-3.31-.13-5.13-.38-1.82-.26-3.31-.99-4.46-2.21-.71-.77-1.44-2.06-2.21-3.89-.77-1.82-1.51-3.81-2.21-5.95-.71-2.14-1.31-4.22-1.82-6.24s-.9-3.6-1.15-4.75c-.13,1.02-.47,2.37-1.01,4.03-.54,1.67-1.2,3.35-1.97,5.04-.77,1.7-1.62,3.25-2.54,4.66-.93,1.41-1.87,2.37-2.83,2.88-1.15.64-2.38,1.04-3.7,1.2-1.31.16-2.61.24-3.89.24-2.11,0-3.86-.14-5.23-.43-1.38-.29-2.56-.78-3.55-1.49-.99-.7-1.86-1.66-2.59-2.88-.74-1.22-1.49-2.78-2.26-4.7-1.54-3.84-2.74-7.9-3.6-12.19-.87-4.29-1.51-8.66-1.92-13.1C.27,33.33.04,28.88.01,24.43c-.03-4.45.01-8.69.14-12.72,0-.45.03-1.06.1-1.82.06-.77.25-1.31.58-1.63.25-.19.83-.35,1.73-.48.89-.13,1.97-.21,3.22-.24,1.25-.03,2.57-.05,3.98-.05s2.75.05,4.03.14c1.28.1,2.38.21,3.31.34.93.13,1.55.29,1.87.48.38.26.59.61.62,1.06.03.45.05.86.05,1.25-.13,2.69-.29,5.81-.48,9.36-.19,3.55-.27,7.15-.24,10.8.03,3.65.27,7.17.72,10.56.45,3.39,1.28,6.3,2.5,8.74.83-.58,1.55-1.82,2.16-3.74.61-1.92,1.15-4.16,1.63-6.72.48-2.56.9-5.25,1.25-8.06.35-2.82.66-5.44.91-7.87.26-2.43.48-4.46.67-6.1.19-1.63.35-2.54.48-2.74.19-.25,1.09-.46,2.69-.62,1.6-.16,3.33-.24,5.19-.24s3.58.08,5.18.24c1.6.16,2.5.43,2.69.82.38,2.62.7,5.78.96,9.46.25,3.68.61,7.39,1.05,11.14s1.09,7.3,1.92,10.66c.83,3.36,2.02,6.1,3.55,8.21ZM24.35,81.31c-3.71.38-6.75.18-9.12-.62-2.37-.8-4.03-1.68-4.99-2.64-.96-.96-1.19-1.71-.67-2.26.51-.54,1.79-.34,3.84.62,1.79.83,3.34,1.34,4.66,1.54,1.31.19,2.54.21,3.7.05,1.15-.16,2.34-.45,3.55-.86,1.21-.42,2.65-.82,4.32-1.2.7-.13,1.28.03,1.73.48.45.45.51,1.02.19,1.73-.19.38-.59.77-1.2,1.15-.61.38-1.29.72-2.06,1.01-.77.29-1.52.51-2.26.67-.74.16-1.3.27-1.68.34ZM33.75,72.19c.13-.64.42-1.01.87-1.1.45-.1.86-.02,1.25.24.38.26.64.64.77,1.15.13.51-.06,1.06-.58,1.63-.32.32-.69.48-1.1.48s-.79-.13-1.11-.38c-.32-.25-.51-.56-.57-.91-.06-.35.1-.72.48-1.1Z"/>
        <path class="cls-2" d="M101.63,64.7c-.06.45-.18,1.3-.34,2.54-.16,1.25-.34,2.54-.53,3.89-.19,1.34-.38,2.56-.58,3.65-.19,1.09-.38,1.73-.58,1.92-.38.38-1.49.61-3.31.67-1.82.06-3.79.02-5.9-.14-2.11-.16-4.07-.4-5.86-.72-1.79-.32-2.88-.73-3.26-1.25-.45-.58-.62-1.95-.53-4.13.1-2.17.4-4.85.91-8.02.51-3.17,1.21-6.7,2.11-10.61.9-3.9,1.89-7.86,2.98-11.86,1.09-4,2.26-7.92,3.5-11.76,1.25-3.84,2.51-7.33,3.79-10.46,1.28-3.13,2.53-5.74,3.74-7.82,1.21-2.08,2.37-3.38,3.46-3.89,1.47-.7,3.07-1.14,4.8-1.3,1.73-.16,3.39-.21,4.99-.14.77,0,1.95.05,3.55.14,1.6.1,3.25.24,4.94.43,1.7.19,3.26.45,4.7.77,1.44.32,2.42.71,2.93,1.15.64.58,1.41,1.89,2.3,3.94.9,2.05,1.84,4.54,2.83,7.49.99,2.94,1.97,6.23,2.93,9.84.96,3.62,1.89,7.31,2.78,11.09.9,3.78,1.69,7.52,2.4,11.23.7,3.71,1.26,7.1,1.68,10.18.42,3.07.64,5.73.67,7.97.03,2.24-.18,3.78-.62,4.61-.38.77-1.12,1.42-2.21,1.97-1.09.54-2.32.96-3.7,1.25-1.38.29-2.82.46-4.32.53-1.5.06-2.91-.03-4.22-.29-1.31-.26-2.42-.64-3.31-1.15-.9-.51-1.41-1.18-1.54-2.02-.26-1.6-.43-3.23-.53-4.9-.1-1.66-.24-3.33-.43-4.99-3.39-.19-6.77-.27-10.13-.24-3.36.03-6.74.18-10.13.43ZM86.36,21.5c.32-1.41.69-2.93,1.1-4.56.42-1.63.94-3.25,1.58-4.85.64-1.6,1.38-3.1,2.21-4.51.83-1.41,1.82-2.56,2.98-3.46.38-.26.97-.61,1.78-1.06.8-.45,1.65-.85,2.54-1.2.9-.35,1.78-.61,2.64-.77.86-.16,1.49-.11,1.87.14.45.32.62.77.53,1.34-.1.58-.4.93-.91,1.06-1.15.13-2.19.27-3.12.43-.93.16-1.84.62-2.74,1.39-.45.38-.98,1.07-1.58,2.06-.61.99-1.22,2.06-1.82,3.22-.61,1.15-1.15,2.29-1.63,3.41-.48,1.12-.85,2-1.1,2.64-.13.32-.29.75-.48,1.3-.19.54-.42,1.12-.67,1.73-.26.61-.51,1.15-.77,1.63-.26.48-.51.75-.77.82-.32.13-.64.11-.96-.05-.32-.16-.54-.4-.67-.72ZM103.35,51.07c2.94-.19,5.92-.32,8.93-.38,3.01-.06,5.98.06,8.93.38,0-.58-.06-1.57-.19-2.98-.13-1.41-.32-3.02-.58-4.85-.26-1.82-.56-3.73-.91-5.71-.35-1.98-.71-3.84-1.06-5.57-.35-1.73-.69-3.23-1.01-4.51-.32-1.28-.58-2.08-.77-2.4-.38-.58-.88-.93-1.49-1.06-.61-.13-1.25-.14-1.92-.05-.67.1-1.36.23-2.06.38-.71.16-1.31.24-1.82.24-1.6,4.29-2.77,8.67-3.5,13.15-.74,4.48-1.58,8.93-2.54,13.34ZM107.58,2.78c-.58.19-1.01.14-1.3-.14s-.43-.62-.43-1.01.11-.75.34-1.1c.22-.35.56-.53,1.01-.53.83.06,1.3.47,1.39,1.2.1.74-.24,1.26-1.01,1.58Z"/>
        <path class="cls-2" d="M183.71,75.74c-2.24.71-4.62,1.18-7.15,1.44-2.53.25-5.01.24-7.44-.05-2.43-.29-4.77-.91-7.01-1.87-2.24-.96-4.22-2.37-5.95-4.22-.71-.77-1.39-1.69-2.06-2.78-.67-1.09-1.25-2.22-1.73-3.41-.48-1.18-.86-2.38-1.15-3.6-.29-1.21-.4-2.37-.34-3.46,0-1.02.32-1.82.96-2.4.32-.32,1.28-.69,2.88-1.1,1.6-.42,3.33-.77,5.18-1.06,1.86-.29,3.58-.48,5.18-.58,1.6-.1,2.56.02,2.88.34.38.38.58.83.58,1.34v1.54c0,.96.21,1.87.62,2.74.42.86.94,1.52,1.58,1.97.64.45,1.38.67,2.21.67s1.69-.38,2.59-1.15c1.28-1.09,1.87-2.46,1.78-4.13-.1-1.66-.56-3.1-1.39-4.32-1.09-1.6-2.61-2.91-4.56-3.94-1.95-1.02-4.07-1.97-6.34-2.83-2.27-.86-4.55-1.74-6.82-2.64-2.27-.9-4.29-2.05-6.05-3.46-1.76-1.41-3.14-3.18-4.13-5.33-.99-2.14-1.3-4.88-.91-8.21.19-1.86.67-3.66,1.44-5.42.77-1.76,1.73-3.41,2.88-4.94,1.15-1.54,2.46-2.93,3.94-4.18,1.47-1.25,3.04-2.32,4.7-3.22,2.62-1.41,5.5-2.45,8.64-3.12,3.13-.67,6.27-.98,9.41-.91,3.13.06,6.18.54,9.12,1.44,2.94.9,5.58,2.22,7.92,3.98,2.34,1.76,4.24,3.95,5.71,6.58,1.47,2.62,2.3,5.7,2.5,9.22.06,1.02-.03,2.13-.29,3.31-.26,1.19-.93,1.97-2.02,2.35-.45.19-1.41.37-2.88.53-1.47.16-3.07.3-4.8.43-1.73.13-3.36.24-4.9.34-1.54.1-2.62.14-3.26.14-.51,0-1.06-.05-1.63-.14-.58-.1-.86-.5-.86-1.2,0-1.15-.1-2.38-.29-3.7-.19-1.31-.54-2.54-1.06-3.7-.51-1.15-1.22-2.13-2.11-2.93-.9-.8-2.05-1.3-3.46-1.49-1.41-.19-2.9.02-4.46.62-1.57.61-2.88,1.46-3.94,2.54-1.06,1.09-1.67,2.3-1.82,3.65-.16,1.34.46,2.66,1.87,3.94.32.32.7.59,1.15.82.45.22.9.43,1.34.62,3.13,1.28,6.19,2.46,9.17,3.55,2.98,1.09,5.9,2.59,8.78,4.51,2.05,1.34,3.92,2.88,5.62,4.61,1.69,1.73,3.04,3.6,4.03,5.62.99,2.02,1.55,4.18,1.68,6.48.13,2.3-.32,4.74-1.34,7.3-.58,1.47-1.36,2.9-2.35,4.27-.99,1.38-2.11,2.62-3.36,3.74-1.25,1.12-2.59,2.1-4.03,2.93-1.44.83-2.93,1.47-4.46,1.92ZM175.26,75.17c.58.19,1.09.16,1.54-.1.45-.25.75-.62.91-1.1.16-.48.14-.98-.05-1.49-.19-.51-.58-.86-1.15-1.06-.64-.25-1.19-.24-1.63.05-.45.29-.74.67-.86,1.15-.13.48-.11.98.05,1.49.16.51.56.86,1.2,1.06ZM181.6,74.11c.64.13,1.5-.08,2.59-.62,1.09-.54,2.21-1.21,3.36-2.02,1.15-.8,2.24-1.62,3.26-2.45,1.02-.83,1.73-1.5,2.11-2.02.77-.9,1.34-1.89,1.73-2.98.38-1.09.74-2.21,1.06-3.36.06-.32.14-.74.24-1.25.1-.51.16-1.02.19-1.54.03-.51,0-1.01-.1-1.49-.1-.48-.27-.85-.53-1.1-.45-.45-1.01-.62-1.68-.53-.67.1-1.17.43-1.49,1.01-.32.71-.48,1.82-.48,3.36s-.42,3.01-1.25,4.42c-.77,1.22-1.65,2.21-2.64,2.98-.99.77-1.98,1.41-2.98,1.92-.99.51-1.89.94-2.69,1.3-.8.35-1.39.69-1.78,1.01-.58.51-.72,1.15-.43,1.92s.78,1.25,1.49,1.44Z"/>
        <path class="cls-2" d="M266.17,15.46c.51-.06.85.03,1.01.29.16.26.3.58.43.96.06.32.1.99.1,2.02s-.03,2.24-.1,3.65c-.06,1.41-.13,2.93-.19,4.56-.06,1.63-.14,3.2-.24,4.7-.1,1.5-.18,2.86-.24,4.08-.06,1.22-.1,2.15-.1,2.78-.19,9.6.1,19.2.86,28.8,0,.38.08,1.07.24,2.06.16.99.29,1.98.38,2.98.1.99.11,1.9.05,2.74-.06.83-.29,1.28-.67,1.34-.96.19-2.1.32-3.41.38-1.31.06-2.66.11-4.03.14-1.38.03-2.74.03-4.08,0-1.34-.03-2.53-.05-3.55-.05-.51,0-1.07.06-1.68.19-.61.13-1.17.13-1.68,0-.32-.06-.69-.24-1.1-.53-.42-.29-.46-.66-.14-1.1-.13-3.65-.06-7.33.19-11.04.25-3.71.45-7.39.58-11.04-2.56.13-5.1.21-7.63.24-2.53.03-5.07.11-7.63.24v10.75c0,3.58.29,7.14.86,10.66.13.64-.06,1.09-.58,1.34-.51.25-1.02.38-1.54.38-2.88-.13-5.7-.29-8.45-.48-2.75-.19-5.57-.22-8.45-.1-.13,0-.35.02-.67.05-.32.03-.64.05-.96.05h-1.44c-.64-.13-1.01-.48-1.1-1.06-.1-.58-.14-1.12-.14-1.63.13-2.56.26-5.09.38-7.58.13-2.5.22-5.02.29-7.58.19-7.74.29-15.46.29-23.14s-.06-15.39-.19-23.14c0-.9-.1-1.81-.29-2.74-.19-.93-.22-1.81-.1-2.64.13-.83.62-1.3,1.49-1.39.86-.1,1.58-.11,2.16-.05,2.11.13,4.24.27,6.38.43,2.14.16,4.27.24,6.38.24.7,0,1.41-.06,2.11-.19.7-.13,1.41-.19,2.11-.19.51,0,1.01.08,1.49.24.48.16.88.43,1.2.82.19.26.35,1.07.48,2.45.13,1.38.22,3.06.29,5.04.06,1.98.1,4.13.1,6.43v6.58c0,2.08-.02,3.92-.05,5.52-.03,1.6-.05,2.72-.05,3.36l11.14.1c-.13-.9-.24-2.3-.34-4.22s-.16-3.94-.19-6.05c-.03-2.11,0-4.08.1-5.9.1-1.82.3-3.12.62-3.89-.26-.45-.26-.78,0-1.01.25-.22.58-.37.96-.43.19,0,.77-.02,1.73-.05.96-.03,2.1-.03,3.41,0,1.31.03,2.72.06,4.22.1,1.5.03,2.9.08,4.18.14,1.28.06,2.37.13,3.26.19.9.06,1.41.13,1.54.19ZM260.51,11.23c-.71.19-1.78.32-3.22.38-1.44.06-2.94.08-4.51.05-1.57-.03-3.07-.11-4.51-.24-1.44-.13-2.54-.29-3.31-.48-.26-.06-.61-.19-1.06-.38-.45-.19-.85-.42-1.2-.67-.35-.25-.53-.53-.53-.82s.32-.56.96-.82c.19-.06.61-.11,1.25-.14.64-.03,1.34-.05,2.11-.05s1.5.02,2.21.05c.7.03,1.21.05,1.54.05.45,0,1.36-.08,2.74-.24,1.38-.16,2.78-.24,4.22-.24s2.69.13,3.74.38c1.06.26,1.52.8,1.39,1.63-.06.38-.3.71-.72.96-.42.26-.78.45-1.1.58ZM268.57,10.08c-.58.45-1.15.66-1.73.62-.58-.03-1.06-.19-1.44-.48-.38-.29-.59-.64-.62-1.06-.03-.42.24-.78.82-1.1.77-.38,1.42-.56,1.97-.53.54.03.96.19,1.25.48s.42.62.38,1.01c-.03.38-.24.74-.62,1.06Z"/>
      </g>
      <g>
        <path class="cls-3" d="M202.02,114.23c31.77-22.37,74.16,1.6,59.97,38.44-4.04,10.62-21.71,16.92-27.92,7.24-3.95-6.2-2.16-14.95,5.17-15.98,8.65-1.22,9.87-13.63,1.6-16.54-7.24-2.54-21.43-1.69-26.98,3.76-5.55,5.54-.75,8.27,4.04,11-.56-1.69-1.41-3.38-1.69-5.26-.19-1.41.47-2.73,1.69-3.29,1.6-.85,5.45-1.97,6.96-1.13.75.38,1.13,1.22,1.41,1.97,1.41,3.67,1.69,7.71,2.26,11.56.66,4.23,1.13,8.55,1.03,12.78-.09,1.69-.09,3.57-.94,5.08-.75,1.41-2.54,2.16-4.14,2.35-1.97.38-6.11.66-7.24-1.03-.66-.94-.75-2.16-.75-3.38-4.04.38-8.27-1.5-11.94-3.38-16.36-8.74-17.67-33.46-2.54-44.18Z"/>
        <path class="cls-3" d="M207.29,177.59c26.79-15.23,60.06,2.44,58.65,33.27-.66,14.38-8.65,22.84-23.97,25.19-15.6,2.35-34.59-3.48-44.65-15.6-11.37-13.72-5.55-34.03,9.96-42.86ZM243.76,204.28c-.94-11.37-20.3-13.54-22.65-2.54-2.54,11.84,23.69,14.66,22.65,2.54Z"/>
      </g>
    </g>
  </g>
</svg>