<?xml version="1.0" encoding="UTF-8"?>
<svg xmlns="http://www.w3.org/2000/svg" viewBox="0 0 539.47 604.99">
  <defs>
    <style>
      .cls-1 {
        opacity: .6;
      }

      .cls-2 {
        fill: #f5a671;
      }

      .cls-3 {
        opacity: .7;
      }

      .cls-3, .cls-4 {
        mix-blend-mode: screen;
      }

      .cls-5 {
        isolation: isolate;
      }

      .cls-6 {
        fill: #ebc273;
      }

      .cls-7 {
        fill: #93d4ec;
      }

      .cls-8 {
        fill: #ec7c27;
      }

      .cls-9 {
        fill: #ebf1f7;
      }

      .cls-10 {
        fill: #d0d9e8;
      }

      .cls-11 {
        fill: #fabe77;
      }

      .cls-12 {
        fill: #a3a7b2;
      }

      .cls-13 {
        opacity: .5;
      }

      .cls-14 {
        fill: #fabd6d;
      }

      .cls-15 {
        fill: #00a2d8;
      }

      .cls-16 {
        fill: #b5dfe8;
      }
    </style>
  </defs>
  <g class="cls-5">
    <g id="Calque_2" data-name="Calque 2">
      <g id="Calque_1-2" data-name="Calque 1">
        <g id="Object">
          <g>
            <g class="cls-4">
              <path class="cls-6" d="M526.97,122.36c-1.45,8.79-4.39,26.71-5.83,35.55-66.37,18.13-136.23,21.09-204.79,19.99,61.65-2.71,126.19-5.85,183.42-30.45,7.19-3.84,11.57-6.26,15.11-11.19,1.19-6.84,4.08-13.67,12.09-13.91h0Z"/>
            </g>
            <g class="cls-4">
              <path class="cls-6" d="M316.35,177.9c-68.57,1.1-138.44-1.86-204.79-19.99-1.45-8.85-4.38-26.74-5.82-35.55,8.05.26,10.86,7.05,12.08,13.91,3.52,4.92,7.92,7.35,15.11,11.19,57.23,24.6,121.75,27.74,183.42,30.45h0Z"/>
            </g>
            <g>
              <path class="cls-7" d="M302.45,46.81l-15.05,30.91-60.69,52.36c2.09-2.28-157.59,34.2-176.21-10.69-11.28-42.4,33.31-26.38,39.76-70.43,2.99-20.45,55.86.54,57.48-20.4,1.6-20.95,44.58-36.53,68.21-24.17,23.65,12.35,34.93-4.31,58.02,5.37,15.34,4.31,28.48,30.72,28.48,37.06h0Z"/>
              <path class="cls-16" d="M302.45,46.81l-15.05,30.91-60.69,52.36s-77.55,14.91-129.93,10.6c-5.79-30.59,41.08-27.13,48.26-56,2.16-9.07-1.41-14.29,3.23-19.34,7.93-8.6,21.96,2.69,39.49-2.42,22.95-6.66,20.53-32.31,41.89-37.87,22.71-4.12,36.25,18.97,61.69-1.75,8.68,11.08,11.11,23.5,11.11,23.5h0Z"/>
            </g>
            <g>
              <path class="cls-10" d="M395.38,53.8l-46.2,78.42c14.69-5.01-207.13,46.39-203.61-10.2,12.91-52.11,64.38-33.98,69.85-60.71,5.45-26.75,39.74-21.49,62.31-18.8,22.57,2.69,32.77-39.22,60.71-34.91,19.49,1.14,49.26,34.32,56.94,46.2h0Z"/>
              <path class="cls-9" d="M395.38,53.8l-46.2,78.42s-121.78,23.57-177.22,13.38c-11.96-41.37,42.45-80.56,80.52-75.15,16.32,2.38,35.66,17.02,43.51,9.66,5.24-4.91-.11-14.48,6.45-20.4,5.85-5.31,12.87-.13,24.17-3.23,23.21-8.8,16.55-30.57,53.6-21.18,9.15,9.85,15.16,18.5,15.16,18.5h0Z"/>
            </g>
            <g>
              <path class="cls-10" d="M363.14,159.08c-4.19,66-161.11,44.09-161.14,44.05-.68-.95-53.48-24.22-68.22-33.31-.54-1.61,30.08-32.77,30.08-32.77,0,0,44.58-67.14,81.65-59.62,37.06,7.52,26.32,39.74,53.17,35.45,26.86-4.29,68.76-19.88,64.46,46.2h0Z"/>
              <path class="cls-9" d="M344.86,188.94c-42.27,28.32-142.86,14.19-142.86,14.19,0,0-46.82-21.91-62.88-30.23,6.4-22.16,37.55-30.58,53.08-21.34,11.38,6.74,11.81,21.49,21.34,22.15,6.6.46,7.99-6.47,16.11-7.25,12.43-1.21,18.56,14.03,27,12.08,8.42-1.94,5.29-17.81,15.72-26.59,22.38-17.77,67.89,6.55,72.5,36.98h-.01Z"/>
            </g>
            <g>
              <path class="cls-15" d="M525.01,122.59c2.37,112.03-176.8,81.58-244.04,66.03,2.37-14.19,8.79-48.82,11.27-63.39,0,0,24.71-88.09,97.78-90.77,77-8.02,140.49-10.06,135,88.13h-.01Z"/>
              <path class="cls-7" d="M525.01,122.59c4.73,101.59-151.06,84.82-216.44,71.94,48.51-28.17,34.13-65.55,50.82-76.82,12.41-3.57,21.2,23.28,41.1,23.38,21.77.1,30.99-31.96,48.34-29.02,12.62,2.14,10.62,19.61,24.98,26.6,16.03,7.8,32.28-7.26,51.2-16.08Z"/>
              <path class="cls-7" d="M524.39,101.77c-37.61,23.45-11.02-14.5-28.02-39.92-44.97-50.05-79.7,8.69-94.01,1.07-7.04-3.89-2.58-15.61-9.66-19.87-10.22-6.15-36.18,8.12-51.57,29.54-19.82,29.14-17.21,53.91-43.53,56.94-9.89,10.33,16.1,41.24-12.47,35.68,6.55-32.35,13.02-118.22,104.88-130.76,66.67-2.44,127.52-20.54,134.38,67.32Z"/>
            </g>
            <g>
              <path class="cls-2" d="M526.97,122.36c-15.76,96.19-32.98,201.58-48.75,297.96-.95,5.64-10.89,66.83-11.86,72.5-6.86,32.27-4.46,84.27-41.37,99.54-41.94,16.84-224.36,16.86-266.56,0-36.83-15.26-34.52-67.26-41.35-99.55-.9-5.68-10.97-66.84-11.86-72.5-15.75-96.42-33.04-201.71-48.75-297.96,8.29.4,10.72,6.91,12.08,13.91,4.78,6.83,15.01,11.33,24,15.16,64.11,23,133.9,25.96,201.55,26.78,66.09-1.09,134.2-4.26,196.8-26.78,9.03-3.84,19.14-8.32,23.98-15.16,1.19-6.84,4.08-13.67,12.09-13.91h0Z"/>
              <path class="cls-11" d="M510.82,221.06l.84-5.16c-14.59,3.65-31.62,7.01-50.85,9.92,1.53-15.7,5.01-51.27,6.5-66.62-1.59.43-3.23.87-4.91,1.3-1.49,15.13-4.94,50.56-6.45,66.03-15.59,2.24-32.55,4.2-50.74,5.8.99-14.74,3.19-47.21,4.18-61.66-1.6.22-3.22.43-4.83.65-.97,14.32-3.16,46.81-4.15,61.4-15.89,1.32-32.69,2.37-50.3,3.1.55-14.34,1.73-45.43,2.26-59.51-1.59.11-3.19.21-4.8.3-.53,13.98-1.71,45.18-2.24,59.4-16.4.6-33.5.95-51.22.97v-58.78h-4.77v58.78c-17.72-.02-34.82-.37-51.22-.97-.54-14.31-1.71-45.34-2.24-59.4-1.6-.09-3.21-.19-4.8-.3.53,14,1.72,45.27,2.26,59.51-17.61-.73-34.41-1.78-50.3-3.1-.99-14.69-3.17-46.99-4.15-61.4-1.62-.22-3.23-.43-4.81-.65.97,14.36,3.17,47.02,4.16,61.66-18.2-1.6-35.15-3.56-50.74-5.8-1.52-15.59-4.96-50.78-6.45-66.03-1.68-.43-3.32-.87-4.91-1.3,1.48,15.24,4.98,51.04,6.5,66.62-19.23-2.91-36.26-6.26-50.85-9.9l.84,5.15c14.97,3.62,31.99,6.8,50.47,9.52l6.05,61.98c-17.07-2.43-32.51-5.2-46.16-8.22l.81,5.04c13.94,2.99,29.35,5.63,45.82,7.91l6.05,61.96c-15.07-2.02-28.95-4.29-41.54-6.79l.81,4.96c12.79,2.45,26.6,4.62,41.19,6.53l6.05,61.91c-13.19-1.65-25.54-3.51-36.95-5.55l.79,4.91c11.54,1.97,23.81,3.77,36.61,5.34l6.04,61.88c-11.43-1.35-22.23-2.84-32.39-4.46l.79,4.83c10.23,1.59,20.96,3.03,32.05,4.32l6.04,61.85c-9.57-1.06-18.72-2.22-27.44-3.48.44,1.67.99,3.29,1.59,4.89,8.5,1.19,17.29,2.27,26.32,3.26l2.8,28.7c1.62.81,3.31,1.53,5.01,2.16l-2.97-30.34c13.09,1.37,26.63,2.53,40.48,3.46l2.24,33.17c1.6.16,3.21.3,4.82.44l-2.26-33.29c13.19.86,26.63,1.51,40.21,1.97l1.29,33.94c1.57.08,3.16.14,4.77.21l-1.29-34.01c12.82.4,25.74.6,38.62.62v34.17c1.59.02,3.18.02,4.77,0v-34.17c12.87-.02,25.79-.22,38.62-.62l-1.29,34.01c1.6-.06,3.19-.13,4.78-.21l1.29-33.94c13.56-.46,27-1.11,40.19-1.97l-2.26,33.29c1.62-.14,3.23-.29,4.82-.44l2.24-33.17c13.84-.94,27.38-2.1,40.48-3.46l-2.96,30.34c1.72-.64,3.37-1.35,4.99-2.16l2.81-28.7c9.03-.98,17.81-2.07,26.32-3.26.62-1.61,1.14-3.23,1.6-4.89-8.74,1.26-17.91,2.42-27.48,3.48l6.04-61.85c11.11-1.29,21.83-2.73,32.07-4.32l.79-4.83c-10.15,1.62-20.98,3.11-32.4,4.46l6.05-61.88c12.81-1.57,25.08-3.37,36.61-5.34l.79-4.91c-11.41,2.03-23.76,3.89-36.96,5.55l6.05-61.91c14.59-1.91,28.41-4.08,41.21-6.53l.81-4.96c-12.59,2.5-26.48,4.77-41.56,6.79l6.05-61.96c16.46-2.29,31.88-4.93,45.81-7.91l.83-5.04c-13.67,3.02-29.11,5.78-46.18,8.22l6.05-61.98c18.48-2.72,35.5-5.9,50.47-9.52h.02ZM238.31,367.6c-16.13-.6-31.58-1.48-46.31-2.57l-4.16-61.48c15.68,1.24,31.81,2.19,48.17,2.86l2.3,61.2h0ZM238.49,372.3l2.32,61.18c-15.4-.56-30.19-1.33-44.32-2.35l-4.16-61.47c15.06,1.14,30.53,2.02,46.16,2.64h0ZM233.51,240.51l2.32,61.2c-16.88-.67-32.99-1.62-48.31-2.83l-4.16-61.5c16.29,1.35,33.1,2.4,50.15,3.13h0ZM127.96,231.28c15.97,2.24,32.96,4.15,50.6,5.69l4.16,61.53c-17.37-1.45-33.64-3.23-48.71-5.28l-6.05-61.94h0ZM134.48,297.96c15.41,2.03,31.7,3.77,48.56,5.18l4.16,61.5c-16.54-1.3-32.15-2.91-46.67-4.77l-6.05-61.91ZM140.98,364.58c14.86,1.86,30.46,3.43,46.55,4.72l4.16,61.48c-15.76-1.18-30.67-2.62-44.65-4.31l-6.05-61.9h0ZM147.49,431.16c14.27,1.68,29.18,3.11,44.5,4.27l4.16,61.47c-14.97-1.06-29.19-2.37-42.62-3.88l-6.04-61.87h0ZM160.03,559.52l-6.04-61.82c13.68,1.51,27.91,2.8,42.48,3.85l4.16,61.45c-14.21-.95-27.76-2.11-40.6-3.48h0ZM196.8,435.79c14.45,1.03,29.22,1.84,44.18,2.4l2.3,61.17c-14.67-.49-28.8-1.21-42.33-2.11l-4.15-61.45h0ZM205.43,563.32l-4.16-61.42c13.83.94,27.95,1.67,42.19,2.16l2.3,61.17c-13.94-.44-27.4-1.08-40.33-1.91h0ZM289.34,565.94c-13.29-.02-26.24-.21-38.79-.57l-2.3-61.13c13.63.43,27.38.67,41.1.68v61.02h0ZM289.34,500.15c-14.18-.02-27.94-.24-41.27-.64l-2.32-61.15c14.46.48,29.05.75,43.59.76v61.02h0ZM289.34,434.36c-15.05-.02-29.65-.27-43.76-.72l-2.3-61.17c15.27.54,30.69.84,46.07.86v61.02h-.01ZM289.34,368.57c-15.94-.02-31.37-.3-46.24-.79l-2.32-61.18c16.1.6,32.35.94,48.56.95v61.02ZM289.34,302.78c-16.83-.02-33.09-.33-48.74-.89l-2.3-61.18c16.89.67,33.99,1.02,51.04,1.05v61.02ZM400.09,237.38l-4.16,61.5c-15.3,1.21-31.43,2.16-48.31,2.83l2.32-61.2c17.05-.73,33.86-1.78,50.15-3.13ZM347.44,306.4c16.35-.67,32.48-1.62,48.17-2.86l-4.16,61.48c-14.72,1.1-30.18,1.97-46.31,2.57l2.3-61.2h0ZM294.11,368.57v-61.02c16.21-.02,32.47-.35,48.56-.95l-2.32,61.18c-14.87.49-30.3.78-46.24.79ZM340.18,372.48l-2.3,61.17c-14.11.44-28.72.7-43.77.72v-61.02c15.38-.02,30.8-.32,46.07-.86h0ZM344.96,372.3c15.64-.62,31.1-1.49,46.16-2.64l-4.16,61.47c-14.13,1.02-28.92,1.8-44.31,2.35l2.3-61.18h.01ZM345.15,240.71l-2.3,61.18c-15.65.56-31.91.87-48.74.89v-61.02c17.05-.03,34.15-.38,51.04-1.05h0ZM332.9,565.37c-12.55.37-25.49.56-38.79.57v-61.02c13.71-.02,27.46-.25,41.1-.68l-2.3,61.13h-.01ZM335.39,499.51c-13.35.4-27.11.62-41.29.64v-61.02c14.54-.02,29.13-.29,43.59-.76l-2.3,61.15h0ZM378.01,563.32c-12.94.83-26.4,1.46-40.33,1.91l2.3-61.17c14.25-.49,28.37-1.22,42.19-2.16l-4.16,61.42h0ZM340.16,499.36l2.3-61.17c14.95-.56,29.73-1.37,44.19-2.4l-4.16,61.45c-13.54.91-27.67,1.62-42.33,2.11h0ZM423.43,559.52c-12.86,1.35-26.41,2.53-40.62,3.48l4.16-61.45c14.57-1.05,28.8-2.34,42.49-3.85l-6.04,61.82h.01ZM429.91,493.03c-13.41,1.51-27.65,2.81-42.62,3.88l4.16-61.47c15.32-1.16,30.23-2.59,44.5-4.27l-6.04,61.87h0ZM436.41,426.48c-13.98,1.68-28.89,3.13-44.64,4.31l4.16-61.48c16.08-1.29,31.67-2.86,46.53-4.72l-6.05,61.9h0ZM442.93,359.88c-14.54,1.86-30.13,3.46-46.69,4.77l4.16-61.5c16.86-1.41,33.15-3.15,48.56-5.18l-6.04,61.91h.01ZM449.43,293.23c-15.07,2.05-31.34,3.83-48.71,5.28l4.16-61.53c17.66-1.54,34.63-3.45,50.6-5.69l-6.05,61.94h0Z"/>
              <g class="cls-3">
                <path class="cls-2" d="M301.27,604.1c4.97.21,10,.37,15.08.49-46.7,1.08-94.24-.78-140.1-6.83-56.44-8.48-51.07-67.11-59.96-109.76-19.52-119.37-40.31-246.38-59.82-365.63,8.74.56,10.47,7,12.24,14.16,9.45,11.32,28.38,16.73,42.84,21.39,13.96,85.35,29.76,181.84,43.73,267.33l10.27,62.75.79,4.83c6.81,32.18,4.53,84.35,41.35,99.54,13.95,6.8,29.26,6.45,44.75,8.46,15.88,1.55,32.15,2.59,48.82,3.27h.01Z"/>
              </g>
              <g class="cls-13">
                <path class="cls-2" d="M526.97,122.36c-19.82,120.88-40.79,249.45-60.61,370.46-8,41.48-4.62,96.93-59.17,104.93-48.39,6.37-98.87,8.15-148.06,6.6,18.81-.61,37.87-1.78,55.95-3.53,31.15-1.58,61.92-7.84,73.88-40.41,4.27-10.77,10.55-60.69,13.03-72.42,17.24-105.45,36.04-220.38,53.27-325.73,19.94-5.48,45.43-10.55,59.45-25.74,1.74-7.14,3.54-13.64,12.25-14.16h0Z"/>
              </g>
              <g class="cls-1">
                <path class="cls-8" d="M524.22,139.1c-1.69,10.33-5.21,31.81-6.88,42.02-92.63,50.15-358.35,50.25-451.25-.02-1.66-10.16-5.2-31.72-6.88-42,16.37,6.9-3.53,14.33,33.36,28.6,64.1,23.01,133.89,25.96,201.53,26.78,66.08-1.09,134.2-4.25,196.8-26.78,36.83-14.27,16.9-21.57,33.32-28.61h0Z"/>
              </g>
              <path class="cls-14" d="M539.45,134.25c-.81,90.52-493.91,91.01-495.46,0,1.77-17.4,23.77-14.85,24.57,2.02,4.79,6.83,15.01,11.33,24,15.16,99.91,35.83,281.88,34.69,383.94,5.09,13.08-4.4,29.96-9.81,38.24-19.99.46-.76.97-1.78.89-2.27-.03-15.55,23.86-15.58,23.84,0h-.02Z"/>
            </g>
            <g>
              <path class="cls-10" d="M456.7,229.42c-41.61,18.25-103.71,29.72-93.25-29.11.76-19.1-13.21-54.32-11.06-64.92,4.13-20.36,60.71-28.32,76.82-17.58,16.11,10.74.54,42.97,6.99,49.42,6.44,6.44,20.94-17.2,45.66,7.52,17.59,17.59,4.43,40.06-25.16,54.67Z"/>
              <path class="cls-9" d="M484.01,208.1c3.65-9.39,1.95-18.97-6.56-27.48-26.13-26.13-41.46-1.14-48.26-7.95-6.82-6.82,9.65-40.89-7.39-52.25-8.58-5.72-28-6.42-45.74-2.96,18.8-5.82,43.4-6.17,53.16.33,16.11,10.74.54,42.97,6.99,49.42s20.94-17.2,45.66,7.52c10.3,10.3,10.06,22.28,2.15,33.36h0Z"/>
              <g class="cls-13">
                <path class="cls-12" d="M484.05,208.04c-14.99,19.78-43.21,30.08-70.42,34.39-50.74,6.79-52.06-13.34-50.19-42.13.76-19.1-13.21-54.32-11.06-64.92,1.45-7.17,9.42-12.81,19.85-16.62-16.32,13.34,7.59,45.59,5.3,69.3-1.93,28.16.11,45.64,50.19,39.55,22.26-3.44,39.55-8.83,56.32-19.58h.01Z"/>
              </g>
              <path class="cls-12" d="M456.7,229.42c-25.37,13.94-92.73,26.05-93.2-7.66,17.48-4.66,53.2-10.04,93.2,7.66Z"/>
            </g>
            <g>
              <path class="cls-15" d="M192.85,169.81c-58.12,8.23,14.33,188.36-61.25,153.62,0,0,1.4,22.79-7.2,34.07-12.38,12.16-76,6.8-75.44,7.29,11.82-19.88,6.99-31.69,6.99-31.69-17.27,9.79-50.65.73-55.95-4.31,14.19-16.52,28.01-55.15,24.69-89.71C5.26,96.71,150.8,98.3,192.85,169.81Z"/>
              <path class="cls-7" d="M165.46,317.52c-9.68,18.82-33.85,5.91-33.85,5.91,0,0,1.4,22.79-7.2,34.07-2.45,3.21-9.63,5.2-18.66,6.37,29.19-24.3,19.42-105.98,19.42-105.98,5.9,24.44,5.37,46.61,5.37,46.61,29.84,6.45,3.05-146.73,62.31-134.7-40.83,1.6-17.73,128.91-27.4,147.71h0Z"/>
              <path class="cls-7" d="M55.96,333.11c-8.34,3.56-16.55,4.7-23.96,4.53,28.43-33.36,28.43-84.84,28.43-84.84,8.87,56.41-4.47,80.32-4.47,80.32h0Z"/>
              <path class="cls-7" d="M192.85,169.81c-1.78.67-36.8-11.49-47.17-23.57-6.63-7.72-5.72-9.47-9.5-11.09-14.59-6.2-30.24,18.89-49.15,13.7-9.42-2.57-10.76-10.22-16.92-9.66-11.12,1.02-18.97,24.93-20.94,43.51-2.8,26.22,5.61,47.25.79,49.15-3.64,1.45-9.47-10.28-13.7-8.87-7.94,15.85,11.21,46.91-21.61,80.25,6.29-15.22,11.85-36.93,10.06-64.14C5.28,96.65,150.82,98.34,192.85,169.81Z"/>
            </g>
          </g>
        </g>
      </g>
    </g>
  </g>
</svg>