<?xml version="1.0" encoding="UTF-8"?>
<svg id="Calque_2" data-name="Calque 2" xmlns="http://www.w3.org/2000/svg" viewBox="0 0 192.2 255.4">
  <defs>
    <style>
      .cls-1 {
        fill: #dadbda;
      }

      .cls-1, .cls-2, .cls-3, .cls-4, .cls-5, .cls-6, .cls-7, .cls-8, .cls-9 {
        fill-rule: evenodd;
      }

      .cls-10 {
        fill: #afdde9;
      }

      .cls-11 {
        fill: #56bfd2;
      }

      .cls-12 {
        fill: #93d2e0;
      }

      .cls-13 {
        fill: #96d4e3;
      }

      .cls-14 {
        fill: #93b3bf;
      }

      .cls-15 {
        fill: #74c8d8;
      }

      .cls-16, .cls-5 {
        fill: #d3d3d2;
      }

      .cls-17 {
        fill: #92989a;
      }

      .cls-18 {
        fill: #587485;
      }

      .cls-19 {
        fill: #18b6ce;
      }

      .cls-20 {
        fill: #94b3be;
      }

      .cls-2, .cls-21 {
        fill: #ccc;
      }

      .cls-22, .cls-3 {
        fill: #fff;
      }

      .cls-23 {
        fill: #bee3ed;
      }

      .cls-24 {
        fill: #567587;
      }

      .cls-25 {
        fill: #dde0e0;
      }

      .cls-26 {
        fill: #628293;
      }

      .cls-4 {
        fill: #80bae3;
      }

      .cls-27 {
        fill: #7dcad9;
      }

      .cls-28 {
        fill: #74c8d9;
      }

      .cls-29 {
        fill: #d5edf3;
      }

      .cls-30 {
        fill: #33b8ce;
      }

      .cls-31 {
        fill: #4abdd1;
      }

      .cls-32 {
        fill: #70c7db;
      }

      .cls-33 {
        fill: #979da4;
      }

      .cls-34 {
        fill: #7ccbdd;
      }

      .cls-35 {
        fill: #b8e1ea;
      }

      .cls-36 {
        fill: #243b51;
      }

      .cls-37 {
        fill: #a7dae7;
      }

      .cls-38 {
        fill: #bbe2ee;
      }

      .cls-6 {
        fill: #539cc5;
      }

      .cls-39 {
        fill: #e3e3e3;
      }

      .cls-40 {
        fill: #8acfde;
      }

      .cls-41 {
        fill: #9cbcc7;
      }

      .cls-42 {
        fill: #cae8f1;
      }

      .cls-43 {
        fill: #314e66;
      }

      .cls-7 {
        fill: #b7b7b7;
      }

      .cls-44 {
        fill: #8cd0e2;
      }

      .cls-8 {
        fill: #f2f2f1;
      }

      .cls-45 {
        fill: #7d9ead;
      }

      .cls-9 {
        fill: #e4e4e5;
      }

      .cls-46 {
        fill: #415e74;
      }

      .cls-47 {
        fill: #8cd0de;
      }

      .cls-48 {
        fill: #4b6678;
      }
    </style>
  </defs>
  <g id="Calque_1-2" data-name="Calque 1">
    <g>
      <path class="cls-8" d="M4.11,0h183.97c2.26,0,4.11,1.85,4.11,4.11v247.18c0,2.26-1.85,4.11-4.11,4.11H4.11c-2.26,0-4.11-1.85-4.11-4.11V4.11C0,1.85,1.85,0,4.11,0"/>
      <path class="cls-7" d="M128.95,12.16h48.63c.56,0,1.02.46,1.02,1.02v23.63c0,.56-.46,1.02-1.02,1.02h-48.63c-.56,0-1.02-.46-1.02-1.02V13.17c0-.56.46-1.02,1.02-1.02"/>
      <path class="cls-4" d="M130.08,13.06h46.36c.69,0,1.25.56,1.25,1.25v21.37c0,.69-.56,1.25-1.25,1.25h-46.36c-.69,0-1.25-.56-1.25-1.25V14.31c0-.69.56-1.25,1.25-1.25"/>
      <path class="cls-3" d="M96.11,18.25c4.66,0,8.44,3.78,8.44,8.44s-3.78,8.44-8.44,8.44-8.44-3.78-8.44-8.44,3.78-8.44,8.44-8.44"/>
      <path class="cls-5" d="M104.55,26.69c0,4.66-3.78,8.44-8.44,8.44-2.13,0-4.08-.79-5.56-2.09,1.55,1.76,3.82,2.88,6.35,2.88,4.66,0,8.44-3.78,8.44-8.44,0-2.53-1.11-4.8-2.88-6.35,1.3,1.49,2.09,3.43,2.09,5.57"/>
      <path class="cls-2" d="M96.03,18.33h.52v2.55h-.52v-2.55"/>
      <path class="cls-16" d="M85.4,26.69c0,.15-.12.27-.27.27s-.27-.12-.27-.27c0-3.1,1.26-5.91,3.29-7.95,2.03-2.03,4.84-3.29,7.95-3.29s5.92,1.26,7.95,3.29c2.03,2.03,3.29,4.84,3.29,7.95,0,.15-.12.27-.27.27s-.27-.12-.27-.27c0-2.96-1.2-5.63-3.14-7.57-1.94-1.94-4.61-3.14-7.57-3.14s-5.63,1.2-7.57,3.14c-1.94,1.94-3.14,4.61-3.14,7.57"/>
      <path class="cls-9" d="M186.07,0h2.02c2.26,0,4.11,1.85,4.11,4.11v247.18c0,2.26-1.85,4.11-4.11,4.11h-2.02V0"/>
      <path class="cls-7" d="M0,213.97h192.2v.97H0v-.97"/>
      <path class="cls-7" d="M0,50.31h192.2v.97H0v-.97"/>
      <path class="cls-9" d="M0,44.85h192.2v5.46H0v-5.46"/>
      <path class="cls-7" d="M0,7.74h192.2v.97H0v-.97"/>
      <path class="cls-7" d="M64.82,8.71h-.48v42.57h.48V8.71"/>
      <path class="cls-1" d="M10.48,28.7h38.05c.67,0,1.21.54,1.21,1.21v7.9c0,.66-.54,1.21-1.21,1.21H10.48c-.67,0-1.21-.54-1.21-1.21v-7.9c0-.67.54-1.21,1.21-1.21"/>
      <path class="cls-7" d="M49.74,30.96H9.27v6.85c0,.66.54,1.21,1.21,1.21h38.05c.67,0,1.21-.54,1.21-1.21v-6.85"/>
      <path class="cls-9" d="M186.07,246.29H0v5c0,2.26,1.85,4.11,4.11,4.11h181.96v-9.11"/>
      <path class="cls-1" d="M122.38,255.4h46.76v-25.72c0-1.77-1.45-3.22-3.23-3.22h-40.31c-1.77,0-3.22,1.45-3.22,3.22v25.72"/>
      <path class="cls-6" d="M162.84,13.06l-20.79,23.86h34.38c.69,0,1.25-.56,1.25-1.25V14.31c0-.69-.56-1.25-1.25-1.25h-13.6"/>
      <path class="cls-17" d="M90.97,191.06c-32.24,0-58.37-26.13-58.37-58.37,0-.72.01-1.43.04-2.15,1.13,31.25,26.81,56.23,58.33,56.23s57.2-24.98,58.33-56.23c.03.71.04,1.43.04,2.15,0,32.24-26.13,58.37-58.37,58.37"/>
      <path class="cls-25" d="M149.34,128.39c0,32.24-26.13,58.37-58.37,58.37s-58.37-26.13-58.37-58.37,26.13-58.37,58.37-58.37,58.37,26.13,58.37,58.37"/>
      <path class="cls-21" d="M135.17,128.39c0,24.42-19.79,44.21-44.21,44.21s-44.21-19.79-44.21-44.21,19.79-44.21,44.21-44.21,44.21,19.79,44.21,44.21"/>
      <path class="cls-43" d="M133.03,128.39c0,.99-.03,1.99-.11,2.97v.02c-.08,1.21-.22,2.41-.41,3.59-3.15,20.11-20.55,35.49-41.55,35.49-23.23,0-42.06-18.83-42.06-42.06,0-1.88.12-3.74.37-5.56,2.72-20.6,20.35-36.5,41.69-36.5,23.15,0,41.93,18.7,42.06,41.82,0,.08,0,.16,0,.24"/>
      <path class="cls-33" d="M57.1,103.44s0,0,0-.01c0,0,0,0,0,.01M57.11,103.42s0-.01.01-.02c0,0,0,.01-.01.02M57.13,103.4c7.47-10.1,19.36-16.73,32.81-17.06-13.45.32-25.33,6.96-32.81,17.06M92.57,86.36h0,0M92.53,86.36h0,0M92.51,86.36s0,0,0,0c0,0,0,0,0,0M92.47,86.36h0,0M92.44,86.36h0,0M92.32,86.35h0,0M92.3,86.35h0,0M92.27,86.35h-.01.01M92.24,86.35h-.01.01M92.21,86.35h-.01.01M92.17,86.35s0,0-.01,0c0,0,0,0,.01,0M92.14,86.35h-.01.01M92.11,86.35h0,0M92.06,86.35s0,0-.01,0c0,0,0,0,.01,0M92.03,86.35h-.01.01M92,86.35s0,0-.01,0c0,0,0,0,.01,0M89.94,86.34h.03-.03M91.97,86.34h-.01.01M89.97,86.34h.03-.03M91.94,86.34s0,0-.01,0c0,0,0,0,.01,0M90,86.34h.02-.02M91.91,86.34h-.01.01M90.03,86.34h.02-.02M91.87,86.34h-.01.01M90.07,86.34s.01,0,.02,0c0,0-.02,0-.02,0M91.84,86.34h-.01.01M90.1,86.34h.02-.02M90.13,86.34s.01,0,.02,0c0,0-.01,0-.02,0M91.8,86.34s-.01,0-.02,0c0,0,.01,0,.02,0M90.16,86.34h.02-.02M91.77,86.34h-.02.02M90.19,86.34h.02-.02M91.73,86.34h-.02.02M90.22,86.34s.01,0,.02,0c0,0-.01,0-.02,0M91.7,86.34h-.02.02M90.25,86.34h.02-.02M91.67,86.34h-.02.02M90.29,86.34h.02-.02M91.64,86.34h-.02.02M90.32,86.34s.01,0,.02,0c0,0-.01,0-.02,0M91.6,86.34h-.02.02M90.35,86.34h.02-.02M91.57,86.34h-.02.02M90.38,86.34h.02-.02M91.54,86.34h-.03.03M90.41,86.34h.02-.02M91.5,86.34s-.02,0-.03,0c0,0,.02,0,.03,0M90.44,86.33h.02-.02M91.46,86.33h-.02.02M90.47,86.33h.02-.02M91.43,86.33h-.02.02M90.5,86.33h.01-.01M90.53,86.33h.01-.01M91.4,86.33h-.02.02M90.56,86.33h.01-.01M91.36,86.33h-.02.02M90.59,86.33h.01-.01M91.33,86.33h-.02.02M90.63,86.33h.02-.02M91.3,86.33h-.02.02M90.66,86.33h.02-.02M91.27,86.33h-.06.06M90.69,86.33h.02-.02M90.72,86.33h.02-.02M91.19,86.33h-.02.02M90.75,86.33h.02-.02M91.16,86.33h-.02.02M90.78,86.33h.02-.02M91.13,86.33s-.01,0-.02,0c0,0,.01,0,.02,0M90.81,86.33h.02-.02M91.09,86.33h-.02.02M90.84,86.33h.02-.02M91.06,86.33h-.02.02M90.87,86.33h.03-.03M91.03,86.33h-.02.02M90.9,86.33h.02-.02M91,86.33h-.03.03M90.93,86.33h.03-.03"/>
      <path class="cls-36" d="M49.48,121.46c1.1-6.66,3.77-12.8,7.62-18.01,0,0,0,0,0-.01,0,0,0,0,0,0,0,0,0-.01.01-.02,0,0,0,0,0,0,7.47-10.1,19.36-16.73,32.81-17.06h.06s0,0,0,0h.06s.02,0,.02,0h.04s.01,0,.02,0h.07s.01,0,.02,0h.07s.01,0,.02,0h.09s.01,0,.01,0h.14s.01,0,.02,0h.2s0,0,.01,0h.3s.01,0,.02,0h.21s.01,0,.02,0h.13s.02,0,.03,0h.1s.01,0,.02,0h.08s0,0,.01,0h.06s.01,0,.02,0h.05s.01,0,.02,0h.07s0,0,.01,0h.05s0,0,.01,0h.05s0,0,.01,0h.05s.01,0,.02,0h.03s0,0,.01,0h.03s.01,0,.02,0h.04s.02,0,.02,0h0s.01,0,.02,0h0s.08,0,.11,0h0s.02,0,.02,0h.03s0,0,0,0h.03s.02,0,.03,0h0c19.94.75,36.34,15.38,39.79,34.52-1.39-2.51-3.12-4.87-5.14-7.04-5.77-14.36-19.83-24.5-36.25-24.5s-30.75,10.33-36.41,24.91c-2.01,2.22-3.72,4.64-5.07,7.21"/>
      <path class="cls-22" d="M149.34,128.39c0,.5,0,1-.02,1.5-.8-31.54-26.62-56.86-58.35-56.86s-57.55,25.32-58.35,56.86c-.01-.5-.02-1-.02-1.5,0-32.24,26.13-58.37,58.37-58.37s58.37,26.13,58.37,58.37"/>
      <path class="cls-39" d="M149.34,128.39c0,32.24-26.13,58.37-58.37,58.37s-58.37-26.13-58.37-58.37c0-.36,0-.72,0-1.07.58,31.74,26.48,57.3,58.36,57.3s57.79-25.56,58.36-57.3c0,.36,0,.71,0,1.07"/>
      <path class="cls-19" d="M132.51,134.97c-3.15,20.11-20.55,35.49-41.55,35.49-23.23,0-42.06-18.83-42.06-42.06,0-1.88.12-3.74.37-5.56,21.52-10.98,31.82-3.04,42.7,4.9,9.98,7.28,20.46,14.57,40.54,7.24"/>
      <path class="cls-43" d="M133.03,128.39c0,.99-.03,1.99-.11,2.97,0-1.27.03-2.34.1-3.21,0,.08,0,.16,0,.24"/>
      <path class="cls-32" d="M122.3,124.53c0,4.03-3.27,7.3-7.3,7.3s-7.3-3.27-7.3-7.3,3.27-7.3,7.3-7.3,7.3,3.27,7.3,7.3"/>
      <path class="cls-32" d="M84.96,108.65c0,2.61-2.11,4.72-4.72,4.72s-4.72-2.11-4.72-4.72,2.11-4.72,4.72-4.72,4.72,2.11,4.72,4.72"/>
      <path class="cls-32" d="M99.98,121.53c0,1.66-1.35,3-3,3s-3-1.35-3-3,1.35-3,3-3,3,1.34,3,3"/>
      <path class="cls-46" d="M117.96,138c.59-1.66,1.03-3.38,1.31-5.14.12-.71.2-1.42.25-2.13l.02-.36c0-.05,0-.1.01-.15.76-.61,1.4-1.37,1.86-2.23,1.79,1.55,3.42,3.24,4.86,5.05-.04.31-.09.61-.13.91-.16,1.04-.37,2.06-.62,3.08-2.71.6-5.22.9-7.57.97"/>
      <path class="cls-30" d="M117.63,152.02c-.17-2.96-1.03-5.78-2.43-8.33,1.13-1.78,2.06-3.69,2.77-5.68,2.35-.06,4.86-.37,7.57-.97-1.39,5.55-4.1,10.69-7.9,14.98M58.47,143c-1.29-2.86-2.21-5.91-2.71-9.1,1.86-2.49,4.08-4.76,6.57-6.78-.02.42-.03.85-.03,1.27,0,4.6,1.09,8.95,3.02,12.8-2.13-1.49-3.89-2.43-5.16-2.43-.36,0-.68.08-.97.23-.9.46-1.16,1.94-.73,4"/>
      <path class="cls-34" d="M119.56,130.23c.04-.56.06-1.15.06-1.74v-.26c0-.41-.02-.82-.04-1.23.11-.08.21-.17.32-.26.52.41,1.03.83,1.52,1.26-.47.86-1.1,1.62-1.86,2.23"/>
      <path class="cls-24" d="M109.77,137.17c-4.84-1.15-8.95-3.36-12.79-5.91,4.91.92,9.31,3.01,12.79,5.91"/>
      <g>
        <path class="cls-31" d="M90.97,167.45c-9.61,0-18.41-3.47-25.21-9.23-.33-1.21-.55-2.45-.64-3.72,1.38,1.49,2.98,2.95,4.8,4.32,6.4,4.86,13.12,6.73,17.43,6.73,2.4,0,4.05-.58,4.48-1.55,8.23-.2,16.16-3.25,22.39-8.63,1.21-1.05,2.35-2.17,3.41-3.36.02.33.03.66.03.99v.19c0,.52-.02,1.02-.06,1.49l-.02.27h0c-.05.56-.13,1.12-.24,1.69-.04.23-.09.46-.14.69-6.93,6.29-16.13,10.12-26.23,10.12"/>
        <path class="cls-31" d="M90.97,157.05c-1.79,0-3.54-.16-5.23-.48-2.62-1.96-5.81-4.18-9.05-6.68-3.25-2.41-6.23-4.84-8.81-6.82,4.36-7.35,13.35-12.32,23.49-12.32,1.93,0,3.81.18,5.62.52,3.84,2.54,7.95,4.76,12.79,5.91,2.23,1.87,4.08,4.07,5.42,6.51-1.5,2.38-3.36,4.55-5.53,6.42-5.19,4.48-11.83,6.95-18.7,6.95"/>
        <path class="cls-11" d="M91.83,164.01c.04-.09.07-.18.09-.27.44-1.84-2.22-4.21-6.18-7.17,1.7.31,3.45.48,5.23.48,6.87,0,13.51-2.47,18.7-6.95,2.17-1.87,4.02-4.04,5.53-6.42,1.41,2.55,2.26,5.37,2.43,8.33-1.05,1.19-2.19,2.31-3.41,3.36-6.24,5.38-14.16,8.43-22.39,8.63"/>
      </g>
      <path class="cls-24" d="M128.57,136.26c-.7-1.11-1.46-2.18-2.28-3.21.08-.64.15-1.27.2-1.91l.02-.24c.06-.81.09-1.65.09-2.5v-.21c-.05-7.68-2.54-14.79-6.74-20.6,2.75,1.84,5.22,3.94,7.37,6.25,1.78,4.43,2.77,9.27,2.8,14.33,0,.08,0,.15,0,.23,0,.92-.03,1.85-.1,2.76v.02c-.08,1.12-.21,2.24-.38,3.34-.08.52-.17,1.04-.28,1.55-.23.07-.47.14-.7.21M52.56,121.26c.45-2.42,1.12-4.77,1.99-7.01,2.11-2.34,4.56-4.48,7.29-6.35-2.48,3.51-4.35,7.5-5.43,11.82-1.24.44-2.52.96-3.85,1.54"/>
      <path class="cls-48" d="M54.55,114.25c5.66-14.58,19.83-24.91,36.41-24.91s30.48,10.14,36.25,24.5c-2.15-2.31-4.62-4.41-7.37-6.25-6.48-8.97-17.03-14.82-28.88-14.82s-22.62,5.93-29.12,15.13c-2.73,1.88-5.18,4.01-7.29,6.35"/>
      <path class="cls-31" d="M53.11,138.02c-.78-3.08-1.2-6.31-1.2-9.63,0-1.75.12-3.48.34-5.16.09-.66.19-1.32.31-1.97,1.33-.59,2.61-1.1,3.85-1.54-.32,1.3-.58,2.62-.76,3.97-.21,1.54-.31,3.13-.31,4.71,0,1.87.14,3.71.42,5.5-.99,1.32-1.88,2.7-2.66,4.13M129.06,137.06c-.16-.27-.32-.54-.49-.8.23-.07.47-.14.7-.21-.07.34-.14.67-.22,1.01"/>
      <path class="cls-24" d="M77.77,119.16c-2.86-1.07-5.96-1.71-9.42-1.71-1.27,0-2.6.09-3.98.27,3-7.45,9.03-13.3,16.47-16.12-.15.76-.22,1.54-.21,2.35-.13-.01-.26-.02-.4-.02-2.61,0-4.72,2.11-4.72,4.72s2.11,4.72,4.72,4.72c1.06,0,2.04-.35,2.83-.94.93,1.71,2.1,3.4,3.51,5.04-3.03.3-5.98.87-8.8,1.69"/>
      <path class="cls-31" d="M62.34,127.12c.04-.85.11-1.69.22-2.52.32-2.41.93-4.71,1.81-6.88,1.38-.19,2.7-.27,3.98-.27,3.47,0,6.56.65,9.42,1.71-1.25.36-2.48.78-3.67,1.24-1.12-.33-2.19-.51-3.1-.51-.17,0-.33,0-.49.02-.57.03-1.06.17-1.47.36-.19.12-.39.21-.53.36-.16.14-.26.3-.4.53-.04.08-.06.18-.04.29.06.39.48.89,1.02,1.24-2.41,1.28-4.67,2.77-6.73,4.43"/>
      <path class="cls-44" d="M80.23,113.37c-2.61,0-4.72-2.11-4.72-4.72s2.11-4.72,4.72-4.72c.13,0,.27,0,.4.02,0,.38.02.76.06,1.14-.06-.01-.12-.03-.18-.04-.17-.02-.34-.04-.51-.04-.07,0-.14,0-.21.01-.49.04-.98.21-1.42.48-.44.28-.82.66-1.08,1.1-.13.22-.23.46-.3.71-.03.13-.06.25-.07.38-.02.13-.02.25,0,.41,0,.05.01.11.04.16.07.17.24.28.42.28.06,0,.12-.01.18-.04l.4-.17c.06-.03.12-.1.18-.15l.18-.17c.13-.11.24-.21.36-.3.24-.18.47-.33.71-.47.26-.13.51-.26.81-.39.14-.08.3-.13.46-.23.07-.03.14-.07.21-.1.36,1.93,1.1,3.93,2.18,5.91-.79.59-1.77.94-2.83.94"/>
      <g>
        <path class="cls-28" d="M82.61,127.28c-.16,0-.33-.03-.52-.08l-.28-.08c-.61-.17-1.14-.4-1.66-.61-.51-.18-1-.41-1.46-.58-.92-.38-1.73-.69-2.54-1.01-.79-.29-1.55-.52-2.36-.74-.41-.11-.81-.2-1.25-.3l-.64-.13c-.22-.05-.46-.07-.63-.15l-1.25-.54c-.16-.07-.31-.15-.46-.24,1.55-.83,3.18-1.57,4.86-2.21.14.04.29.09.43.13,1.44.49,2.93,1.18,4.29,2.05.69.42,1.32.91,1.94,1.38.59.5,1.16,1.01,1.66,1.55.67.73.69,1.41.05,1.52-.06,0-.12.01-.18.01"/>
        <path class="cls-47" d="M69.07,122.69c-.54-.35-.96-.84-1.02-1.24-.02-.11,0-.21.04-.29.13-.23.24-.39.4-.53.14-.16.35-.25.53-.36.41-.19.9-.33,1.47-.36.16-.01.32-.02.49-.02.92,0,1.99.18,3.1.51-1.74.67-3.42,1.44-5.03,2.29"/>
      </g>
      <path class="cls-38" d="M77.38,108.54c-.18,0-.35-.1-.42-.28-.02-.05-.03-.11-.04-.16,0-.17,0-.28,0-.41,0-.13.04-.25.07-.38.07-.24.16-.49.3-.71.26-.44.64-.82,1.08-1.1.44-.27.93-.44,1.42-.48.07,0,.14-.01.21-.01.17,0,.34.02.51.04.06.01.12.03.18.04.04.47.11.95.2,1.43-.07.04-.14.07-.21.1-.16.09-.32.15-.46.23-.3.13-.55.27-.81.39-.25.14-.48.29-.71.47-.12.09-.24.19-.36.3l-.18.17c-.06.05-.12.13-.18.15l-.4.17c-.06.03-.12.04-.18.04"/>
      <path class="cls-26" d="M126.29,133.05c-1.44-1.81-3.07-3.5-4.86-5.05.56-1.03.87-2.21.87-3.46,0-.24-.01-.48-.03-.72,2.42-4.62.97-11-3.36-16.84.32.2.64.41.95.62,4.2,5.81,6.69,12.92,6.74,20.6v.21c0,.85-.03,1.7-.09,2.5l-.02.24c-.05.63-.11,1.27-.2,1.91M56.41,119.72c1.08-4.32,2.95-8.31,5.43-11.82,5.5-3.78,12.13-6.52,19.42-7.82-.18.49-.32,1-.42,1.52-7.44,2.83-13.48,8.68-16.47,16.12-2.46.33-5.1.98-7.96,1.99"/>
      <path class="cls-18" d="M61.84,107.9c6.5-9.19,17.23-15.13,29.12-15.13s22.4,5.85,28.88,14.82c-.31-.21-.63-.42-.95-.62-2.14-2.89-4.99-5.65-8.42-7.99-5.73-3.92-11.93-5.9-17.21-5.9-4.72,0-8.69,1.59-10.9,4.82-.47.68-.84,1.41-1.11,2.18-7.29,1.31-13.92,4.04-19.42,7.82"/>
      <path class="cls-11" d="M55.77,133.9c-.28-1.79-.42-3.63-.42-5.5,0-1.58.1-3.17.31-4.71.18-1.35.43-2.67.76-3.97,2.86-1.02,5.5-1.67,7.96-1.99-.87,2.17-1.49,4.48-1.81,6.88-.11.83-.19,1.67-.22,2.52-2.5,2.01-4.71,4.29-6.57,6.78"/>
      <path class="cls-13" d="M121.42,128c-.49-.43-1-.85-1.52-1.26.68-.57,1.28-1.22,1.78-1.96.21-.31.41-.64.58-.97.02.24.03.48.03.72,0,1.25-.32,2.43-.87,3.46"/>
      <path class="cls-45" d="M109.73,129.57c-5.04-.24-10.8-2.22-16.15-5.88-2.72-1.86-5.08-3.99-7.01-6.23,1.58-.15,3.18-.23,4.8-.23,6.25,0,12.2,1.17,17.55,3.27-.77,1.15-1.21,2.54-1.21,4.03,0,1.96.77,3.73,2.02,5.04M96.97,118.52c-1.66,0-3,1.34-3,3s1.35,3,3,3,3-1.35,3-3-1.35-3-3-3"/>
      <path class="cls-37" d="M110.78,129.6c-.35,0-.7,0-1.05-.03-1.25-1.31-2.02-3.09-2.02-5.04,0-1.49.45-2.87,1.21-4.03.33.13.66.26.99.4-.15.28-.26.58-.34.89-.04.2-.1.39-.11.6-.03.21-.02.39-.02.66,0,.09.02.18.06.26.12.28.39.45.68.45.1,0,.2-.02.29-.06l.65-.28c.09-.04.19-.16.29-.25l.29-.27c.2-.17.39-.33.58-.48.13-.1.25-.19.37-.27,2.47,1.24,4.78,2.68,6.9,4.31.01.18.02.35.03.53-2.26,1.74-5.33,2.6-8.8,2.6"/>
      <path class="cls-37" d="M96.97,124.53c-1.66,0-3-1.35-3-3s1.35-3,3-3,3,1.34,3,3-1.35,3-3,3"/>
      <path class="cls-42" d="M110.18,123.77c-.29,0-.56-.17-.68-.45-.04-.08-.06-.18-.06-.26,0-.27-.01-.45.02-.66.01-.21.07-.4.11-.6.08-.3.19-.61.34-.89.94.39,1.85.81,2.75,1.26-.12.08-.25.17-.37.27-.19.14-.38.31-.58.48l-.29.27c-.1.08-.2.21-.29.25l-.65.28c-.1.04-.19.06-.29.06"/>
      <path class="cls-10" d="M119.58,127c0-.18-.02-.35-.03-.53.12.09.23.18.35.27-.1.09-.21.17-.32.26"/>
      <path class="cls-14" d="M108.92,120.5c-5.35-2.1-11.3-3.27-17.55-3.27-1.62,0-3.22.08-4.8.23-1.4-1.63-2.58-3.33-3.51-5.04,1.15-.86,1.89-2.23,1.89-3.78,0-2.48-1.9-4.5-4.33-4.7,0-.81.06-1.59.21-2.35,3.16-1.2,6.58-1.86,10.12-1.86,11.99,0,22.31,7.44,26.57,17.95-.79-.29-1.64-.45-2.54-.45-2.54,0-4.78,1.3-6.08,3.27"/>
      <path class="cls-35" d="M119.55,126.47c-2.12-1.62-4.43-3.07-6.9-4.31.25-.18.51-.34.77-.49.41-.2.82-.41,1.29-.63.23-.12.49-.21.74-.36.26-.13.54-.25.83-.45l.13-.1c.12-.09.23-.21.3-.35.23-.47.04-1.04-.43-1.27-.35-.17-.72-.27-1.09-.35-.27-.03-.54-.06-.81-.06-.11,0-.23,0-.34.02-.78.06-1.57.34-2.28.76-.7.45-1.31,1.06-1.73,1.77-.05.08-.09.16-.13.24-.33-.14-.66-.27-.99-.4,1.31-1.97,3.55-3.27,6.08-3.27.89,0,1.75.16,2.54.45,1.11,2.74,1.81,5.7,2.02,8.78"/>
      <path class="cls-35" d="M83.06,112.43c-1.08-1.99-1.82-3.99-2.18-5.91.1-.05.2-.1.31-.18l.08-.06c.08-.05.14-.13.19-.22.14-.29.02-.65-.27-.79-.16-.08-.33-.13-.5-.18-.03-.39-.05-.77-.06-1.14,2.42.2,4.33,2.23,4.33,4.7,0,1.55-.74,2.92-1.89,3.78"/>
      <path class="cls-29" d="M112.65,122.17c-.9-.45-1.81-.87-2.75-1.26.04-.08.09-.16.13-.24.41-.71,1.02-1.32,1.73-1.77.71-.43,1.5-.71,2.28-.76.11-.01.23-.02.34-.02.27,0,.55.03.81.06.38.08.74.18,1.09.35.47.23.66.8.43,1.27-.07.15-.17.26-.3.35l-.13.1c-.29.21-.57.32-.83.45-.25.15-.51.24-.74.36-.47.22-.88.43-1.29.63-.26.15-.52.31-.77.49"/>
      <path class="cls-29" d="M80.89,106.52c-.09-.48-.16-.96-.2-1.43.17.04.34.1.5.18.29.14.41.5.27.79-.04.09-.11.16-.19.22l-.08.06c-.1.07-.21.13-.31.18"/>
      <path class="cls-41" d="M122.26,123.81c-.27-2.82-2.16-5.18-4.73-6.13-4.26-10.51-14.58-17.95-26.57-17.95-3.54,0-6.96.66-10.12,1.86.1-.52.24-1.03.42-1.52,3.16-.57,6.44-.86,9.81-.86,10.49,0,20.15,2.9,27.83,7.76,4.33,5.84,5.78,12.22,3.36,16.84"/>
      <path class="cls-20" d="M118.9,106.97c-7.67-4.86-17.33-7.76-27.83-7.76-3.37,0-6.65.3-9.81.86.28-.77.65-1.5,1.11-2.18,2.21-3.22,6.18-4.82,10.9-4.82,5.27,0,11.48,1.99,17.21,5.9,3.43,2.35,6.27,5.1,8.42,7.99"/>
      <path class="cls-23" d="M119.9,126.74c-.12-.09-.23-.18-.35-.27-.21-3.09-.9-6.04-2.02-8.78,2.57.95,4.45,3.3,4.73,6.13-.17.33-.37.65-.58.97-.5.74-1.1,1.39-1.78,1.96"/>
      <path class="cls-15" d="M65.12,154.5c-3.84-4.14-6-8.46-6.65-11.5,1.65,3.64,3.89,6.97,6.6,9.84,0,.1,0,.2,0,.29,0,.46.02.92.05,1.37M67.17,144.35c-.68-1.01-1.29-2.06-1.84-3.15.8.55,1.64,1.18,2.54,1.87-.25.42-.48.84-.7,1.28"/>
      <path class="cls-27" d="M65.07,152.84c-2.71-2.87-4.95-6.19-6.6-9.84-.43-2.06-.17-3.54.73-4,.28-.16.61-.23.97-.23,1.28,0,3.03.94,5.16,2.43.55,1.09,1.16,2.14,1.84,3.15-.92,1.82-1.55,3.77-1.87,5.81-.14.89-.22,1.78-.23,2.68"/>
      <path class="cls-40" d="M87.35,165.56c-4.31,0-11.03-1.87-17.43-6.73-1.82-1.37-3.42-2.84-4.8-4.32-.03-.46-.05-.91-.05-1.37,0-.1,0-.19,0-.29,6.5,6.88,15.7,11.18,25.89,11.18.29,0,.58,0,.86-.01-.43.97-2.08,1.55-4.48,1.55M85.73,156.57c-7.7-1.43-14.34-5.95-18.56-12.22.22-.43.45-.86.7-1.28,2.58,1.98,5.56,4.41,8.81,6.82,3.24,2.5,6.43,4.72,9.05,6.68"/>
      <path class="cls-12" d="M90.97,164.02c-10.19,0-19.39-4.3-25.89-11.18.01-.89.09-1.79.23-2.68.32-2.04.95-3.99,1.87-5.81,4.22,6.27,10.85,10.79,18.56,12.22,3.96,2.96,6.63,5.33,6.18,7.17-.02.09-.05.18-.09.27-.29,0-.58.01-.86.01"/>
    </g>
  </g>
</svg>