<?xml version="1.0" encoding="UTF-8"?>
<svg id="Calque_2" data-name="Calque 2" xmlns="http://www.w3.org/2000/svg" viewBox="0 0 475.26 369.9">
  <defs>
    <style>
      .cls-1 {
        fill: #93d4ec;
      }

      .cls-2 {
        fill: #ebf1f7;
      }

      .cls-3 {
        fill: #d0d9e8;
      }

      .cls-4 {
        fill: #b5dfe8;
      }
    </style>
  </defs>
  <g id="Calque_2-2" data-name="Calque 2">
    <g id="Object">
      <g>
        <g>
          <path class="cls-1" d="M475.22,61.65c0-34.06-27.61-61.65-61.65-61.65H30.9c-40.46.65-40.58,60.94-.02,61.65-40.43.68-40.57,60.96.01,61.65h382.67c34.05,0,61.65-27.6,61.65-61.65h.01Z"/>
          <path class="cls-4" d="M470.34,37.59c-11.41-16.07-30.49-26.59-52.06-26.59C410.93,15.54-8.42-.38,1.46,21.59,5.49,8.89,17.19,0,30.9,0h382.67c25.5,0,47.41,15.49,56.78,37.59h-.01Z"/>
          <path class="cls-4" d="M475.09,65.69c-2.09,32.17-28.84,57.61-61.53,57.61H30.9c-21.9.52-37.48-23.83-28.13-43.47.88,16.24,14.32,29.12,30.79,29.12h382.67c27.64,0,51.04-18.19,58.87-43.25h-.01Z"/>
          <path class="cls-4" d="M30.88,61.65c117.29-6.46,235.64-6.52,352.92,0-117.28,6.52-235.63,6.46-352.92,0Z"/>
        </g>
        <g>
          <path class="cls-1" d="M475.22,308.25c0-34.06-27.61-61.65-61.65-61.65H30.9c-40.46.65-40.58,60.94-.02,61.65-40.43.68-40.57,60.95.01,61.65h382.67c34.05,0,61.65-27.6,61.65-61.65h.01Z"/>
          <path class="cls-4" d="M467.97,279.23c-11.71-12.31-28.58-20.05-47.33-20.05H22.58c-7.75,0-14.87,2.64-20.41,7.04,4.58-11.69,15.75-19.6,28.73-19.62h382.67c23.55,0,44.02,13.21,54.4,32.63h0Z"/>
          <path class="cls-4" d="M475.22,308.25c0,34.06-27.61,61.65-61.65,61.65H30.9c-20.54.37-35.93-20.89-29.36-40.25,3.98,12.41,15.61,21.38,29.36,21.38h382.67c30.83,0,56.38-22.64,60.94-52.22.46,3.07.71,6.23.71,9.43h0Z"/>
          <path class="cls-4" d="M30.88,308.25c117.29-6.46,235.64-6.52,352.92,0-117.28,6.52-235.63,6.46-352.92,0Z"/>
        </g>
        <g>
          <path class="cls-3" d="M.06,184.95c0-34.06,27.61-61.65,61.65-61.65h382.67c40.46.65,40.58,60.94.02,61.65,40.43.68,40.57,60.96-.01,61.65H61.72C27.67,246.6.07,219,.06,184.95H.06Z"/>
          <path class="cls-2" d="M474.2,207.92c5.29,19.12-9.87,38.98-29.81,38.68H61.72c-36.83.28-66.08-33.02-61.15-69.5,3.87,30.35,29.78,53.77,61.15,53.77h382.67c14.31,0,26.35-9.75,29.81-22.96h0Z"/>
          <path class="cls-2" d="M474.4,147.07c-5.47-4.06-12.36-6.48-19.84-6.48H53.05c-19.15,0-36.38,7.94-48.22,20.57,9.31-22.25,31.27-37.86,56.89-37.86h382.67c14.49,0,26.78,9.99,30.02,23.77h-.01Z"/>
          <path class="cls-2" d="M444.4,184.95c-117.29,6.46-235.64,6.52-352.92,0,117.28-6.52,235.63-6.46,352.92,0Z"/>
        </g>
      </g>
    </g>
  </g>
</svg>