<?xml version="1.0" encoding="UTF-8"?>
<svg id="Calque_2" data-name="Calque 2" xmlns="http://www.w3.org/2000/svg" viewBox="0 0 290.87 386.84">
  <defs>
    <style>
      .cls-1 {
        opacity: .81;
      }

      .cls-2 {
        fill: #1d1c1a;
        opacity: .04;
      }

      .cls-3 {
        fill: #dadbda;
      }

      .cls-4, .cls-5 {
        fill: #d3d3d2;
      }

      .cls-6 {
        opacity: .61;
      }

      .cls-7 {
        fill: #92989a;
      }

      .cls-8 {
        fill: #ccc;
      }

      .cls-8, .cls-9, .cls-10, .cls-11, .cls-5, .cls-12, .cls-13, .cls-14, .cls-15, .cls-16 {
        fill-rule: evenodd;
      }

      .cls-17, .cls-9 {
        fill: #fff;
      }

      .cls-10 {
        opacity: .28;
      }

      .cls-10, .cls-15 {
        fill: #f2f2f1;
      }

      .cls-18 {
        opacity: .8;
      }

      .cls-11 {
        fill: #80bae3;
      }

      .cls-12 {
        fill: #bbbbbc;
        opacity: .73;
      }

      .cls-13 {
        fill: #539cc5;
      }

      .cls-19 {
        opacity: .37;
      }

      .cls-20 {
        fill: #79797a;
      }

      .cls-14, .cls-21 {
        fill: #b7b7b7;
      }

      .cls-16 {
        fill: #e4e4e5;
      }
    </style>
  </defs>
  <g id="Calque_1-2" data-name="Calque 1">
    <path class="cls-15" d="M6.24.33h278.41c3.42,0,6.22,2.8,6.22,6.22v374.06c0,3.42-2.8,6.22-6.22,6.22H6.24c-3.42,0-6.22-2.8-6.22-6.22V6.56C.02,3.13,2.82.33,6.24.33"/>
    <path class="cls-16" d="M281.58,0h3.05c3.42,0,6.22,2.8,6.22,6.22v374.06c0,3.42-2.8,6.22-6.22,6.22h-3.05V0"/>
    <path class="cls-14" d="M0,323.8h290.85v1.46H0v-1.46"/>
    <path class="cls-14" d="M0,76.13h290.85v1.46H0v-1.46"/>
    <path class="cls-16" d="M0,67.87h290.85v8.26H0v-8.26"/>
    <path class="cls-14" d="M0,11.71h290.85v1.46H0v-1.46"/>
    <path class="cls-16" d="M281.58,372.72H0v7.56c0,3.42,2.8,6.22,6.22,6.22h275.36v-13.79"/>
    <g>
      <path class="cls-14" d="M226.99,29.4h43.01c.5,0,.9.41.9.9v20.91c0,.49-.4.9-.9.9h-43.01c-.5,0-.9-.41-.9-.9v-20.91c0-.49.4-.9.9-.9"/>
      <path class="cls-11" d="M227.99,30.2h41c.61,0,1.1.5,1.1,1.1v18.9c0,.61-.5,1.1-1.1,1.1h-41c-.61,0-1.11-.5-1.11-1.1v-18.9c0-.61.5-1.1,1.11-1.1"/>
      <path class="cls-13" d="M256.97,30.2l-18.39,21.11h30.41c.61,0,1.1-.5,1.1-1.1v-18.9c0-.61-.5-1.1-1.1-1.1h-12.03"/>
    </g>
    <g class="cls-18">
      <rect class="cls-7" x="221.06" y="227" width="5.21" height="21.06" rx="2.6" ry="2.6"/>
    </g>
    <g>
      <rect class="cls-3" x="220.7" y="227.63" width="4.8" height="19.68" rx="2.4" ry="2.4"/>
      <rect class="cls-17" x="220.54" y="227.73" width="4.42" height="19.58" rx="2.21" ry="2.21"/>
    </g>
    <g class="cls-1">
      <rect class="cls-7" x="220.88" y="154.23" width="5.21" height="21.06" rx="2.6" ry="2.6"/>
    </g>
    <g>
      <rect class="cls-3" x="220.53" y="154.87" width="4.8" height="19.68" rx="2.4" ry="2.4"/>
      <rect class="cls-17" x="220.36" y="154.97" width="4.42" height="19.58" rx="2.21" ry="2.21"/>
    </g>
    <path class="cls-17" d="M202.48,267.83s-84.79.11-125.97,0c-11.21-.03-20.13-7.83-20.13-17.49v-101.32c.19-7.99,9.01-17.49,20.13-17.49h125.97c11.12,0,20.13,7.83,20.13,17.49v101.32c0,9.66-9.01,17.49-20.13,17.49Z"/>
    <path class="cls-7" d="M202.38,275.87s-84.79.11-125.97,0c-11.21-.03-20.13-7.83-20.13-17.49v-101.32c.19-7.99,9.01-17.49,20.13-17.49h125.97c11.12,0,20.13,7.83,20.13,17.49v101.32c0,9.66-9.01,17.49-20.13,17.49Z"/>
    <path class="cls-3" d="M202.35,271.04s-84.79.11-125.97,0c-11.21-.03-20.13-7.83-20.13-17.49v-101.32c.19-7.99,9.01-17.49,20.13-17.49h125.97c11.12,0,20.13,7.83,20.13,17.49v101.32c0,9.66-9.01,17.49-20.13,17.49Z"/>
    <path class="cls-10" d="M55.95,195.3l.17-45.15c.39-3.44,6.43-15.82,21.77-15.24h124.15c3.74-.61,20.64,3.23,19.99,18.14l-145.96,118.16c-4.61.42-17.88-2.56-19.94-15.13l-.18-60.78Z"/>
    <g class="cls-6">
      <rect class="cls-17" x="79.26" y="185.53" width="14.42" height="30.2" rx="7.21" ry="7.21"/>
      <rect class="cls-7" x="80.14" y="186.24" width="12.66" height="28.78" rx="6.33" ry="6.33"/>
    </g>
    <rect class="cls-7" x="69.35" y="182.15" width="14.49" height="37.83" rx="7.25" ry="7.25"/>
    <rect class="cls-17" x="70.32" y="182.15" width="15.04" height="37.83" rx="7.52" ry="7.52"/>
    <g class="cls-19">
      <path class="cls-17" d="M215.93,142.72c1.6,1.71,2.42,3.45,2.61,4.64-.62-1.46-1.52-2.81-2.64-4,0-.04,0-.08.01-.11.02-.18.02-.35.03-.53M214.65,146.57c.27.41.51.83.72,1.27-.34-.24-.7-.51-1.08-.8.13-.15.25-.31.36-.47"/>
      <path class="cls-17" d="M215.89,143.36c1.13,1.19,2.03,2.54,2.64,4,.12.81-.05,1.37-.47,1.52-.13.05-.28.07-.45.06-.58-.04-1.34-.46-2.25-1.1-.21-.44-.45-.86-.72-1.27.48-.67.84-1.41,1.05-2.18.09-.34.16-.68.2-1.03"/>
      <path class="cls-17" d="M206.25,137.77c1.95.13,4.93,1.06,7.66,3.14.78.59,1.45,1.2,2.02,1.82,0,.18,0,.35-.03.53,0,.04,0,.07-.01.11-2.7-2.85-6.72-4.8-11.33-5.11-.13,0-.26-.02-.39-.02.23-.36.99-.53,2.08-.46M206.67,141.28c3.44.79,6.28,2.74,7.97,5.29-.11.16-.23.32-.36.47-1.1-.84-2.36-1.87-3.75-2.9-1.38-1.06-2.74-2.02-3.86-2.86"/>
      <path class="cls-17" d="M204.57,138.25c4.61.32,8.63,2.26,11.33,5.11-.04.34-.1.69-.2,1.03-.21.78-.57,1.51-1.05,2.18-1.69-2.55-4.54-4.5-7.97-5.29-1.69-1.27-2.81-2.26-2.55-2.96.01-.03.03-.07.05-.1.13,0,.26.01.39.02"/>
    </g>
    <g class="cls-19">
      <path class="cls-17" d="M62,261.62c-1.55-1.76-2.34-3.52-2.5-4.72.58,1.47,1.45,2.85,2.55,4.07,0,.04,0,.08-.01.11-.02.18-.03.35-.04.53M63.38,257.81c-.26-.42-.49-.85-.69-1.29.34.25.69.53,1.07.83-.13.15-.26.3-.37.46"/>
      <path class="cls-17" d="M62.05,260.98c-1.1-1.22-1.97-2.6-2.55-4.07-.1-.81.08-1.37.51-1.5.13-.05.28-.06.45-.05.58.06,1.33.5,2.23,1.16.2.44.43.87.69,1.29-.49.66-.87,1.38-1.1,2.15-.1.33-.18.68-.22,1.02"/>
      <path class="cls-17" d="M71.56,266.85c-1.95-.19-4.9-1.21-7.58-3.36-.76-.61-1.42-1.24-1.98-1.87,0-.18.02-.35.04-.53,0-.04,0-.07.01-.11,2.63,2.93,6.6,4.99,11.21,5.44.13.01.26.02.39.03-.24.35-1.01.5-2.09.4M71.22,263.32c-3.42-.89-6.22-2.92-7.85-5.52.12-.16.24-.31.37-.46,1.08.87,2.32,1.94,3.68,3.01,1.35,1.1,2.7,2.1,3.8,2.97"/>
      <path class="cls-17" d="M73.26,266.42c-4.6-.45-8.57-2.51-11.21-5.44.05-.34.12-.68.22-1.02.23-.77.61-1.49,1.1-2.15,1.63,2.6,4.43,4.63,7.85,5.52,1.66,1.31,2.76,2.34,2.48,3.03-.01.03-.03.07-.05.1-.13-.01-.26-.02-.39-.03"/>
    </g>
    <path class="cls-2" d="M70.32,189.67s-.26-5.92,6.28-7.52l8.76,31.15c-.31,2.43-2.52,7.33-8.93,6.65,0,0-6.11-1.19-6.11-7.48s0-22.79,0-22.79Z"/>
    <g>
      <path class="cls-5" d="M158.34,42.47c0,7.06-5.72,12.78-12.78,12.78-3.23,0-6.17-1.2-8.42-3.17,2.34,2.67,5.78,4.35,9.6,4.35,7.06,0,12.78-5.72,12.78-12.78,0-3.83-1.68-7.26-4.35-9.6,1.97,2.25,3.17,5.2,3.17,8.42"/>
      <g>
        <path class="cls-9" d="M145.56,29.69c7.06,0,12.78,5.72,12.78,12.77s-5.72,12.78-12.78,12.78-12.77-5.72-12.77-12.78,5.72-12.77,12.77-12.77"/>
        <path class="cls-8" d="M145.44,29.81h.79v3.86h-.79v-3.86"/>
        <path class="cls-4" d="M129.36,42.47c0,.22-.18.4-.4.4s-.41-.18-.41-.4c0-4.7,1.9-8.95,4.98-12.03,3.08-3.08,7.33-4.98,12.03-4.98s8.95,1.9,12.03,4.98c3.08,3.08,4.98,7.33,4.98,12.03,0,.22-.18.4-.4.4s-.4-.18-.4-.4c0-4.47-1.81-8.53-4.75-11.46-2.93-2.93-6.98-4.75-11.46-4.75s-8.53,1.81-11.46,4.75c-2.93,2.93-4.75,6.98-4.75,11.46"/>
      </g>
    </g>
    <rect class="cls-21" x="168.64" y="40.75" width="20.67" height="2.22"/>
    <rect class="cls-21" x="100.5" y="39.83" width="20.67" height="2.22"/>
    <rect class="cls-21" x="168.64" y="31.15" width="20.67" height="2.22"/>
    <rect class="cls-21" x="100.5" y="31.15" width="20.67" height="2.22"/>
    <rect class="cls-21" x="100.5" y="49.25" width="20.67" height="2.22"/>
    <rect class="cls-21" x="168.64" y="49.51" width="20.67" height="2.22"/>
    <rect class="cls-20" x="26.88" y="31.09" width="25.67" height="5.91"/>
    <polygon class="cls-12" points="26.88 31.09 38.6 31.09 43.04 37 26.88 37 26.88 31.09"/>
  </g>
</svg>